<?xml version="1.0" encoding="UTF-8" standalone="no"?>
<!DOCTYPE svg PUBLIC "-//W3C//DTD SVG 1.1//EN"
 "http://www.w3.org/Graphics/SVG/1.1/DTD/svg11.dtd">
<!-- Generated by graphviz version 6.0.1 (20220911.1526)
 -->
<!-- Pages: 1 -->
<svg width="154pt" height="131pt"
 viewBox="0.00 0.00 154.45 131.00" xmlns="http://www.w3.org/2000/svg" xmlns:xlink="http://www.w3.org/1999/xlink">
<g id="graph0" class="graph" transform="scale(1 1) rotate(0) translate(4 127)">
<polygon fill="white" stroke="none" points="-4,4 -4,-127 150.45,-127 150.45,4 -4,4"/>
<!-- external_c -->
<g id="node1" class="node">
<title>external_c</title>
<polygon fill="none" stroke="black" points="73,-123 0,-123 0,-87 73,-87 73,-123"/>
<text text-anchor="middle" x="36.5" y="-101.3" font-family="Times,serif" font-size="14.00">external_c</text>
</g>
<!-- add_out -->
<g id="node2" class="node">
<title>add_out</title>
<ellipse fill="none" stroke="black" cx="77.5" cy="-18" rx="56.59" ry="18"/>
<text text-anchor="middle" x="77.5" y="-14.3" font-family="Times,serif" font-size="14.00">add_out::call</text>
</g>
<!-- external_c&#45;&gt;add_out -->
<g id="edge2" class="edge">
<title>external_c&#45;&gt;add_out</title>
<path fill="none" stroke="black" d="M44.8,-86.8C50.56,-74.85 58.34,-58.72 64.87,-45.18"/>
<polygon fill="black" stroke="black" points="68.16,-46.41 69.36,-35.89 61.86,-43.37 68.16,-46.41"/>
<text text-anchor="middle" x="63" y="-57.8" font-family="Times,serif" font-size="14.00">b</text>
</g>
<!-- add1 -->
<g id="node3" class="node">
<title>add1</title>
<ellipse fill="none" stroke="black" stroke-dasharray="5,2" cx="118.5" cy="-105" rx="27.9" ry="18"/>
<text text-anchor="middle" x="118.5" y="-101.3" font-family="Times,serif" font-size="14.00">add1</text>
</g>
<!-- add1&#45;&gt;add_out -->
<g id="edge1" class="edge">
<title>add1&#45;&gt;add_out</title>
<path fill="none" stroke="black" d="M110.59,-87.61C104.77,-75.54 96.73,-58.88 90.04,-45"/>
<polygon fill="black" stroke="black" points="93.16,-43.41 85.66,-35.92 86.85,-46.45 93.16,-43.41"/>
<text text-anchor="middle" x="121.5" y="-57.8" font-family="Times,serif" font-size="14.00">out &#45;&gt; a</text>
</g>
</g>
</svg>
