<?xml version="1.0" encoding="UTF-8" standalone="no"?>
<!DOCTYPE svg PUBLIC "-//W3C//DTD SVG 1.1//EN"
 "http://www.w3.org/Graphics/SVG/1.1/DTD/svg11.dtd">
<!-- Generated by graphviz version 6.0.1 (20220911.1526)
 -->
<!-- Pages: 1 -->
<svg width="265pt" height="218pt"
 viewBox="0.00 0.00 265.00 218.00" xmlns="http://www.w3.org/2000/svg" xmlns:xlink="http://www.w3.org/1999/xlink">
<g id="graph0" class="graph" transform="scale(1 1) rotate(0) translate(4 214)">
<polygon fill="white" stroke="none" points="-4,4 -4,-214 261,-214 261,4 -4,4"/>
<!-- external_a -->
<g id="node1" class="node">
<title>external_a</title>
<polygon fill="none" stroke="black" points="73,-210 0,-210 0,-174 73,-174 73,-210"/>
<text text-anchor="middle" x="36.5" y="-188.3" font-family="Times,serif" font-size="14.00">external_a</text>
</g>
<!-- add1 -->
<g id="node4" class="node">
<title>add1</title>
<ellipse fill="none" stroke="black" cx="128.5" cy="-105" rx="45.49" ry="18"/>
<text text-anchor="middle" x="128.5" y="-101.3" font-family="Times,serif" font-size="14.00">add1::call</text>
</g>
<!-- external_a&#45;&gt;add1 -->
<g id="edge1" class="edge">
<title>external_a&#45;&gt;add1</title>
<path fill="none" stroke="black" d="M55.12,-173.8C69.16,-160.83 88.55,-142.91 103.87,-128.76"/>
<polygon fill="black" stroke="black" points="106.49,-131.1 111.46,-121.74 101.74,-125.96 106.49,-131.1"/>
<text text-anchor="middle" x="92" y="-144.8" font-family="Times,serif" font-size="14.00">a</text>
</g>
<!-- external_b -->
<g id="node2" class="node">
<title>external_b</title>
<polygon fill="none" stroke="black" points="165.5,-210 91.5,-210 91.5,-174 165.5,-174 165.5,-210"/>
<text text-anchor="middle" x="128.5" y="-188.3" font-family="Times,serif" font-size="14.00">external_b</text>
</g>
<!-- external_b&#45;&gt;add1 -->
<g id="edge2" class="edge">
<title>external_b&#45;&gt;add1</title>
<path fill="none" stroke="black" d="M128.5,-173.8C128.5,-162.16 128.5,-146.55 128.5,-133.24"/>
<polygon fill="black" stroke="black" points="132,-133.18 128.5,-123.18 125,-133.18 132,-133.18"/>
<text text-anchor="middle" x="132" y="-144.8" font-family="Times,serif" font-size="14.00">b</text>
</g>
<!-- external_c -->
<g id="node3" class="node">
<title>external_c</title>
<polygon fill="none" stroke="black" stroke-dasharray="5,2" points="257,-210 184,-210 184,-174 257,-174 257,-210"/>
<text text-anchor="middle" x="220.5" y="-188.3" font-family="Times,serif" font-size="14.00">external_c</text>
</g>
<!-- add_out -->
<g id="node5" class="node">
<title>add_out</title>
<ellipse fill="none" stroke="black" cx="174.5" cy="-18" rx="56.59" ry="18"/>
<text text-anchor="middle" x="174.5" y="-14.3" font-family="Times,serif" font-size="14.00">add_out::call</text>
</g>
<!-- external_c&#45;&gt;add_out -->
<g id="edge4" class="edge">
<title>external_c&#45;&gt;add_out</title>
<path fill="none" stroke="black" d="M220.9,-173.82C220.91,-147.11 218.51,-94.52 201.5,-54 200.05,-50.54 198.17,-47.13 196.07,-43.87"/>
<polygon fill="black" stroke="black" points="198.86,-41.75 190.18,-35.67 193.18,-45.84 198.86,-41.75"/>
<text text-anchor="middle" x="221" y="-101.3" font-family="Times,serif" font-size="14.00">b</text>
</g>
<!-- add1&#45;&gt;add_out -->
<g id="edge3" class="edge">
<title>add1&#45;&gt;add_out</title>
<path fill="none" stroke="black" d="M137.59,-87.21C144.1,-75.18 152.99,-58.75 160.41,-45.03"/>
<polygon fill="black" stroke="black" points="163.59,-46.51 165.27,-36.05 157.44,-43.18 163.59,-46.51"/>
<text text-anchor="middle" x="175.5" y="-57.8" font-family="Times,serif" font-size="14.00">out &#45;&gt; a</text>
</g>
</g>
</svg>
