<?xml version="1.0" encoding="UTF-8" standalone="no"?>
<!DOCTYPE svg PUBLIC "-//W3C//DTD SVG 1.1//EN"
 "http://www.w3.org/Graphics/SVG/1.1/DTD/svg11.dtd">
<!-- Generated by graphviz version 6.0.1 (20220911.1526)
 -->
<!-- Pages: 1 -->
<svg width="174pt" height="131pt"
 viewBox="0.00 0.00 173.50 131.00" xmlns="http://www.w3.org/2000/svg" xmlns:xlink="http://www.w3.org/1999/xlink">
<g id="graph0" class="graph" transform="scale(1 1) rotate(0) translate(4 127)">
<polygon fill="white" stroke="none" points="-4,4 -4,-127 169.5,-127 169.5,4 -4,4"/>
<!-- external_a -->
<g id="node1" class="node">
<title>external_a</title>
<polygon fill="none" stroke="black" points="73,-123 0,-123 0,-87 73,-87 73,-123"/>
<text text-anchor="middle" x="36.5" y="-101.3" font-family="Times,serif" font-size="14.00">external_a</text>
</g>
<!-- add_out -->
<g id="node3" class="node">
<title>add_out</title>
<ellipse fill="none" stroke="black" cx="82.5" cy="-18" rx="56.59" ry="18"/>
<text text-anchor="middle" x="82.5" y="-14.3" font-family="Times,serif" font-size="14.00">add_out::call</text>
</g>
<!-- external_a&#45;&gt;add_out -->
<g id="edge1" class="edge">
<title>external_a&#45;&gt;add_out</title>
<path fill="none" stroke="black" d="M45.81,-86.8C52.34,-74.74 61.18,-58.4 68.54,-44.79"/>
<polygon fill="black" stroke="black" points="71.68,-46.35 73.36,-35.89 65.52,-43.01 71.68,-46.35"/>
<text text-anchor="middle" x="66" y="-57.8" font-family="Times,serif" font-size="14.00">a</text>
</g>
<!-- external_b -->
<g id="node2" class="node">
<title>external_b</title>
<polygon fill="none" stroke="black" points="165.5,-123 91.5,-123 91.5,-87 165.5,-87 165.5,-123"/>
<text text-anchor="middle" x="128.5" y="-101.3" font-family="Times,serif" font-size="14.00">external_b</text>
</g>
<!-- external_b&#45;&gt;add_out -->
<g id="edge2" class="edge">
<title>external_b&#45;&gt;add_out</title>
<path fill="none" stroke="black" d="M119.19,-86.8C112.66,-74.74 103.82,-58.4 96.46,-44.79"/>
<polygon fill="black" stroke="black" points="99.48,-43.01 91.64,-35.89 93.32,-46.35 99.48,-43.01"/>
<text text-anchor="middle" x="111" y="-57.8" font-family="Times,serif" font-size="14.00">b</text>
</g>
</g>
</svg>
